<mxfile host="Electron" agent="Mozilla/5.0 (X11; Linux x86_64) AppleWebKit/537.36 (KHTML, like Gecko) draw.io/28.0.6 Chrome/138.0.7204.100 Electron/37.2.3 Safari/537.36" version="28.0.6">
  <diagram name="Sayfa -1" id="jVbLMMZbUTD6QwI6ZFnH">
    <mxGraphModel dx="1938" dy="1180" grid="1" gridSize="10" guides="1" tooltips="1" connect="1" arrows="1" fold="1" page="1" pageScale="1" pageWidth="1200" pageHeight="1600" math="0" shadow="0">
      <root>
        <mxCell id="0" />
        <mxCell id="1" parent="0" />
        <mxCell id="Jio9_Xvqp7xOdHNEGPPu-2" value="" style="strokeWidth=1;shadow=0;dashed=0;align=center;html=1;shape=mxgraph.mockup.containers.browserWindow;rSize=0;strokeColor=#666666;strokeColor2=#008cff;strokeColor3=#c4c4c4;mainText=,;recursiveResize=0;aspect=fixed;" vertex="1" parent="1">
          <mxGeometry x="60" y="20" width="1024" height="768" as="geometry" />
        </mxCell>
        <mxCell id="Jio9_Xvqp7xOdHNEGPPu-3" value="Page 1" style="strokeWidth=1;shadow=0;dashed=0;align=center;html=1;shape=mxgraph.mockup.containers.anchor;fontSize=17;fontColor=#666666;align=left;whiteSpace=wrap;" vertex="1" parent="Jio9_Xvqp7xOdHNEGPPu-2">
          <mxGeometry x="60" y="12" width="110" height="26" as="geometry" />
        </mxCell>
        <mxCell id="Jio9_Xvqp7xOdHNEGPPu-4" value="https://www.draw.io" style="strokeWidth=1;shadow=0;dashed=0;align=center;html=1;shape=mxgraph.mockup.containers.anchor;rSize=0;fontSize=17;fontColor=#666666;align=left;" vertex="1" parent="Jio9_Xvqp7xOdHNEGPPu-2">
          <mxGeometry x="130" y="60" width="250" height="26" as="geometry" />
        </mxCell>
        <mxCell id="Jio9_Xvqp7xOdHNEGPPu-5" value="" style="rounded=1;whiteSpace=wrap;html=1;" vertex="1" parent="Jio9_Xvqp7xOdHNEGPPu-2">
          <mxGeometry x="320" y="210" width="320" height="420" as="geometry" />
        </mxCell>
        <mxCell id="Jio9_Xvqp7xOdHNEGPPu-8" value="" style="ellipse;whiteSpace=wrap;html=1;aspect=fixed;" vertex="1" parent="Jio9_Xvqp7xOdHNEGPPu-2">
          <mxGeometry x="440" y="170" width="80" height="80" as="geometry" />
        </mxCell>
        <mxCell id="Jio9_Xvqp7xOdHNEGPPu-9" value="&lt;i&gt;&lt;font&gt;Email&lt;/font&gt;&lt;/i&gt;" style="rounded=1;whiteSpace=wrap;html=1;" vertex="1" parent="Jio9_Xvqp7xOdHNEGPPu-2">
          <mxGeometry x="375" y="330" width="210" height="30" as="geometry" />
        </mxCell>
        <mxCell id="Jio9_Xvqp7xOdHNEGPPu-11" value="Password" style="rounded=1;whiteSpace=wrap;html=1;" vertex="1" parent="Jio9_Xvqp7xOdHNEGPPu-2">
          <mxGeometry x="375" y="390" width="210" height="30" as="geometry" />
        </mxCell>
        <mxCell id="Jio9_Xvqp7xOdHNEGPPu-12" value="Giriş" style="rounded=1;whiteSpace=wrap;html=1;" vertex="1" parent="Jio9_Xvqp7xOdHNEGPPu-2">
          <mxGeometry x="490" y="460" width="100" height="40" as="geometry" />
        </mxCell>
        <mxCell id="Jio9_Xvqp7xOdHNEGPPu-13" value="&lt;h1&gt;Login&lt;/h1&gt;" style="text;html=1;align=center;verticalAlign=middle;whiteSpace=wrap;rounded=0;" vertex="1" parent="Jio9_Xvqp7xOdHNEGPPu-2">
          <mxGeometry x="450" y="270" width="60" height="30" as="geometry" />
        </mxCell>
        <mxCell id="Jio9_Xvqp7xOdHNEGPPu-14" value="Sisteme Kayıt Olamk için &lt;b&gt;buraya&lt;/b&gt;" style="text;html=1;align=center;verticalAlign=middle;whiteSpace=wrap;rounded=0;" vertex="1" parent="Jio9_Xvqp7xOdHNEGPPu-2">
          <mxGeometry x="375" y="540" width="205" height="30" as="geometry" />
        </mxCell>
        <mxCell id="Jio9_Xvqp7xOdHNEGPPu-16" value="" style="strokeWidth=1;shadow=0;dashed=0;align=center;html=1;shape=mxgraph.mockup.containers.browserWindow;rSize=0;strokeColor=#666666;strokeColor2=#008cff;strokeColor3=#c4c4c4;mainText=,;recursiveResize=0;" vertex="1" parent="1">
          <mxGeometry x="60" y="880" width="1024" height="768" as="geometry" />
        </mxCell>
        <mxCell id="Jio9_Xvqp7xOdHNEGPPu-17" value="Page 1" style="strokeWidth=1;shadow=0;dashed=0;align=center;html=1;shape=mxgraph.mockup.containers.anchor;fontSize=17;fontColor=#666666;align=left;whiteSpace=wrap;" vertex="1" parent="Jio9_Xvqp7xOdHNEGPPu-16">
          <mxGeometry x="60" y="12" width="110" height="26" as="geometry" />
        </mxCell>
        <mxCell id="Jio9_Xvqp7xOdHNEGPPu-18" value="https://www.draw.io" style="strokeWidth=1;shadow=0;dashed=0;align=center;html=1;shape=mxgraph.mockup.containers.anchor;rSize=0;fontSize=17;fontColor=#666666;align=left;" vertex="1" parent="Jio9_Xvqp7xOdHNEGPPu-16">
          <mxGeometry x="130" y="60" width="250" height="26" as="geometry" />
        </mxCell>
        <mxCell id="Jio9_Xvqp7xOdHNEGPPu-33" value="" style="group" vertex="1" connectable="0" parent="Jio9_Xvqp7xOdHNEGPPu-16">
          <mxGeometry x="260" y="160" width="480" height="566" as="geometry" />
        </mxCell>
        <mxCell id="Jio9_Xvqp7xOdHNEGPPu-19" value="" style="rounded=1;whiteSpace=wrap;html=1;" vertex="1" parent="Jio9_Xvqp7xOdHNEGPPu-33">
          <mxGeometry width="480" height="566" as="geometry" />
        </mxCell>
        <mxCell id="Jio9_Xvqp7xOdHNEGPPu-20" value="Name" style="rounded=1;whiteSpace=wrap;html=1;" vertex="1" parent="Jio9_Xvqp7xOdHNEGPPu-33">
          <mxGeometry x="70" y="136" width="150" height="30" as="geometry" />
        </mxCell>
        <mxCell id="Jio9_Xvqp7xOdHNEGPPu-21" value="Surname" style="rounded=1;whiteSpace=wrap;html=1;" vertex="1" parent="Jio9_Xvqp7xOdHNEGPPu-33">
          <mxGeometry x="250" y="136" width="160" height="30" as="geometry" />
        </mxCell>
        <mxCell id="Jio9_Xvqp7xOdHNEGPPu-22" value="Email" style="rounded=1;whiteSpace=wrap;html=1;" vertex="1" parent="Jio9_Xvqp7xOdHNEGPPu-33">
          <mxGeometry x="65" y="306" width="345" height="30" as="geometry" />
        </mxCell>
        <mxCell id="Jio9_Xvqp7xOdHNEGPPu-23" value="Passvword" style="rounded=1;whiteSpace=wrap;html=1;" vertex="1" parent="Jio9_Xvqp7xOdHNEGPPu-33">
          <mxGeometry x="65" y="376" width="345" height="30" as="geometry" />
        </mxCell>
        <mxCell id="Jio9_Xvqp7xOdHNEGPPu-24" value="Phone number" style="rounded=1;whiteSpace=wrap;html=1;" vertex="1" parent="Jio9_Xvqp7xOdHNEGPPu-33">
          <mxGeometry x="70" y="226" width="340" height="30" as="geometry" />
        </mxCell>
        <mxCell id="Jio9_Xvqp7xOdHNEGPPu-25" value="Kaydet" style="rounded=1;whiteSpace=wrap;html=1;" vertex="1" parent="Jio9_Xvqp7xOdHNEGPPu-33">
          <mxGeometry x="262.5" y="446" width="140" height="40" as="geometry" />
        </mxCell>
        <mxCell id="Jio9_Xvqp7xOdHNEGPPu-26" value="&lt;h1&gt;Register&lt;/h1&gt;" style="text;html=1;align=center;verticalAlign=middle;whiteSpace=wrap;rounded=0;" vertex="1" parent="Jio9_Xvqp7xOdHNEGPPu-33">
          <mxGeometry x="202.5" y="46" width="60" height="30" as="geometry" />
        </mxCell>
        <mxCell id="Jio9_Xvqp7xOdHNEGPPu-27" value="&lt;h2&gt;Name&lt;/h2&gt;" style="text;html=1;align=center;verticalAlign=middle;whiteSpace=wrap;rounded=0;" vertex="1" parent="Jio9_Xvqp7xOdHNEGPPu-33">
          <mxGeometry x="70" y="106" width="60" height="30" as="geometry" />
        </mxCell>
        <mxCell id="Jio9_Xvqp7xOdHNEGPPu-28" value="&lt;h2&gt;Surname&lt;/h2&gt;" style="text;html=1;align=center;verticalAlign=middle;whiteSpace=wrap;rounded=0;" vertex="1" parent="Jio9_Xvqp7xOdHNEGPPu-33">
          <mxGeometry x="260" y="106" width="60" height="30" as="geometry" />
        </mxCell>
        <mxCell id="Jio9_Xvqp7xOdHNEGPPu-29" value="&lt;h2&gt;Phone Number&lt;/h2&gt;" style="text;html=1;align=center;verticalAlign=middle;whiteSpace=wrap;rounded=0;" vertex="1" parent="Jio9_Xvqp7xOdHNEGPPu-33">
          <mxGeometry x="70" y="196" width="140" height="30" as="geometry" />
        </mxCell>
        <mxCell id="Jio9_Xvqp7xOdHNEGPPu-30" value="&lt;h2&gt;Email&lt;/h2&gt;" style="text;html=1;align=left;verticalAlign=middle;whiteSpace=wrap;rounded=0;" vertex="1" parent="Jio9_Xvqp7xOdHNEGPPu-33">
          <mxGeometry x="65" y="276" width="140" height="30" as="geometry" />
        </mxCell>
        <mxCell id="Jio9_Xvqp7xOdHNEGPPu-31" value="&lt;h2&gt;Password&lt;/h2&gt;" style="text;html=1;align=left;verticalAlign=middle;whiteSpace=wrap;rounded=0;" vertex="1" parent="Jio9_Xvqp7xOdHNEGPPu-33">
          <mxGeometry x="65" y="346" width="140" height="30" as="geometry" />
        </mxCell>
        <mxCell id="Jio9_Xvqp7xOdHNEGPPu-32" value="Back" style="rounded=1;whiteSpace=wrap;html=1;" vertex="1" parent="Jio9_Xvqp7xOdHNEGPPu-33">
          <mxGeometry x="65" y="446" width="140" height="40" as="geometry" />
        </mxCell>
        <mxCell id="Jio9_Xvqp7xOdHNEGPPu-34" value="" style="strokeWidth=1;shadow=0;dashed=0;align=center;html=1;shape=mxgraph.mockup.containers.browserWindow;rSize=0;strokeColor=#666666;strokeColor2=#008cff;strokeColor3=#c4c4c4;mainText=,;recursiveResize=0;overflow=hidden;resizable=0;" vertex="1" parent="1">
          <mxGeometry x="1400" y="130" width="1024" height="768" as="geometry" />
        </mxCell>
        <mxCell id="Jio9_Xvqp7xOdHNEGPPu-35" value="Page 1" style="strokeWidth=1;shadow=0;dashed=0;align=center;html=1;shape=mxgraph.mockup.containers.anchor;fontSize=17;fontColor=#666666;align=left;whiteSpace=wrap;" vertex="1" parent="Jio9_Xvqp7xOdHNEGPPu-34">
          <mxGeometry x="60" y="12" width="110" height="26" as="geometry" />
        </mxCell>
        <mxCell id="Jio9_Xvqp7xOdHNEGPPu-36" value="https://www.draw.io" style="strokeWidth=1;shadow=0;dashed=0;align=center;html=1;shape=mxgraph.mockup.containers.anchor;rSize=0;fontSize=17;fontColor=#666666;align=left;" vertex="1" parent="Jio9_Xvqp7xOdHNEGPPu-34">
          <mxGeometry x="130" y="60" width="250" height="26" as="geometry" />
        </mxCell>
        <mxCell id="Jio9_Xvqp7xOdHNEGPPu-52" value="&lt;h3&gt;&lt;font style=&quot;font-size: 15px;&quot;&gt;Çıkış&lt;/font&gt;&lt;/h3&gt;" style="rounded=1;whiteSpace=wrap;html=1;" vertex="1" parent="Jio9_Xvqp7xOdHNEGPPu-34">
          <mxGeometry x="850" y="140" width="120" height="40" as="geometry" />
        </mxCell>
        <mxCell id="Jio9_Xvqp7xOdHNEGPPu-53" value="&lt;h1&gt;&lt;b&gt;Bekir PİRALP&lt;/b&gt;&lt;/h1&gt;" style="text;html=1;align=left;verticalAlign=middle;whiteSpace=wrap;rounded=0;fontSize=14;" vertex="1" parent="Jio9_Xvqp7xOdHNEGPPu-34">
          <mxGeometry x="50" y="130" width="220" height="60" as="geometry" />
        </mxCell>
        <mxCell id="Jio9_Xvqp7xOdHNEGPPu-54" value="&lt;h2&gt;&lt;span style=&quot;font-weight: normal;&quot;&gt;&lt;i&gt;test01@mail.com&lt;/i&gt;&lt;/span&gt;&lt;/h2&gt;" style="text;html=1;align=center;verticalAlign=middle;whiteSpace=wrap;rounded=0;" vertex="1" parent="Jio9_Xvqp7xOdHNEGPPu-34">
          <mxGeometry x="260" y="150" width="130" height="30" as="geometry" />
        </mxCell>
        <mxCell id="Jio9_Xvqp7xOdHNEGPPu-55" value="" style="line;strokeWidth=2;html=1;" vertex="1" parent="Jio9_Xvqp7xOdHNEGPPu-34">
          <mxGeometry x="35" y="210" width="955" height="10" as="geometry" />
        </mxCell>
        <mxCell id="Jio9_Xvqp7xOdHNEGPPu-56" value="" style="rounded=1;whiteSpace=wrap;html=1;container=1;" vertex="1" parent="Jio9_Xvqp7xOdHNEGPPu-34">
          <mxGeometry x="120" y="310" width="840" height="220" as="geometry">
            <mxRectangle x="50" y="310" width="50" height="40" as="alternateBounds" />
          </mxGeometry>
        </mxCell>
        <mxCell id="Jio9_Xvqp7xOdHNEGPPu-59" value="&lt;h1 style=&quot;margin-top: 0px;&quot;&gt;&lt;span style=&quot;font-size: 12px; font-weight: 400;&quot;&gt;Lorem ipsum dolor sit amet,&amp;nbsp;&lt;/span&gt;&lt;span style=&quot;background-color: transparent; color: light-dark(rgb(0, 0, 0), rgb(255, 255, 255)); font-size: 12px; font-weight: normal;&quot;&gt;Lorem ipsum dolor sit amet, consectetur adipisicing elit, sed do eiusmod tempor incididunt ut labore et dolore magna aliqua.&amp;nbsp;&lt;/span&gt;&lt;span style=&quot;background-color: transparent; color: light-dark(rgb(0, 0, 0), rgb(255, 255, 255)); font-size: 12px; font-weight: normal;&quot;&gt;Lorem ipsum dolor sit amet, consectetur adipisicing elit, sed do eiusmod tempor incididunt ut labore et dolore magna aliqua.&lt;/span&gt;&lt;span style=&quot;background-color: transparent; color: light-dark(rgb(0, 0, 0), rgb(255, 255, 255)); font-size: 12px; font-weight: 400;&quot;&gt;Lorem ipsum dolor sit amet,&amp;nbsp;&lt;/span&gt;&lt;span style=&quot;background-color: transparent; color: light-dark(rgb(0, 0, 0), rgb(255, 255, 255)); font-size: 12px; font-weight: normal;&quot;&gt;Lorem ipsum dolor sit amet, consectetur adipisicing elit, sed do eiusmod tempor incididunt ut labore et dolore magna aliqua.&amp;nbsp;&lt;/span&gt;&lt;span style=&quot;background-color: transparent; color: light-dark(rgb(0, 0, 0), rgb(255, 255, 255)); font-size: 12px; font-weight: normal;&quot;&gt;Lorem ipsum dolor sit amet, consectetur adipisicing elit, sed do eiusmod tempor incididunt ut labore et dolore magna aliqua.&lt;/span&gt;&lt;/h1&gt;" style="text;html=1;whiteSpace=wrap;overflow=hidden;rounded=0;" vertex="1" parent="Jio9_Xvqp7xOdHNEGPPu-56">
          <mxGeometry x="28.13" y="70" width="590.63" height="130" as="geometry" />
        </mxCell>
        <mxCell id="Jio9_Xvqp7xOdHNEGPPu-58" value="&lt;h2&gt;Case Name&lt;/h2&gt;" style="text;html=1;align=center;verticalAlign=middle;whiteSpace=wrap;rounded=0;" vertex="1" parent="Jio9_Xvqp7xOdHNEGPPu-56">
          <mxGeometry x="18.75" y="20" width="112.5" height="30" as="geometry" />
        </mxCell>
        <mxCell id="Jio9_Xvqp7xOdHNEGPPu-60" value="&lt;i&gt;&lt;font style=&quot;color: rgb(51, 51, 51);&quot;&gt;start time - end time&lt;/font&gt;&lt;/i&gt;" style="text;html=1;align=left;verticalAlign=middle;whiteSpace=wrap;rounded=0;" vertex="1" parent="Jio9_Xvqp7xOdHNEGPPu-56">
          <mxGeometry x="140.62" y="25" width="129.38" height="25" as="geometry" />
        </mxCell>
        <mxCell id="Jio9_Xvqp7xOdHNEGPPu-61" value="Open by &lt;b&gt;Opened User&lt;/b&gt;" style="text;html=1;align=left;verticalAlign=middle;whiteSpace=wrap;rounded=0;" vertex="1" parent="Jio9_Xvqp7xOdHNEGPPu-56">
          <mxGeometry x="640" y="70" width="180" height="30" as="geometry" />
        </mxCell>
        <mxCell id="Jio9_Xvqp7xOdHNEGPPu-63" value="CaseStatus" style="rounded=1;whiteSpace=wrap;html=1;" vertex="1" parent="Jio9_Xvqp7xOdHNEGPPu-56">
          <mxGeometry x="679.6875" y="15" width="103.12499999999999" height="40" as="geometry" />
        </mxCell>
        <mxCell id="Jio9_Xvqp7xOdHNEGPPu-64" value="" style="line;strokeWidth=2;html=1;strokeColor=#B3B3B3;" vertex="1" parent="Jio9_Xvqp7xOdHNEGPPu-56">
          <mxGeometry x="28.125" y="50" width="600" height="10" as="geometry" />
        </mxCell>
        <mxCell id="Jio9_Xvqp7xOdHNEGPPu-85" value="Assigned to &lt;b&gt;assigned User&lt;/b&gt;" style="text;html=1;align=left;verticalAlign=middle;whiteSpace=wrap;rounded=0;" vertex="1" parent="Jio9_Xvqp7xOdHNEGPPu-56">
          <mxGeometry x="640" y="106" width="180" height="30" as="geometry" />
        </mxCell>
        <mxCell id="Jio9_Xvqp7xOdHNEGPPu-65" value="" style="rounded=1;whiteSpace=wrap;html=1;container=1;portConstraint=none;overflow=hidden;" vertex="1" parent="Jio9_Xvqp7xOdHNEGPPu-34">
          <mxGeometry y="329" width="73.89" height="211" as="geometry" />
        </mxCell>
        <mxCell id="Jio9_Xvqp7xOdHNEGPPu-69" value="&lt;font style=&quot;font-size: 22px;&quot;&gt;&lt;b style=&quot;&quot;&gt;+&lt;/b&gt;&lt;/font&gt;" style="text;html=1;align=center;verticalAlign=middle;whiteSpace=wrap;rounded=1;strokeColor=default;glass=0;" vertex="1" parent="Jio9_Xvqp7xOdHNEGPPu-65">
          <mxGeometry x="5" y="15" width="60" height="30" as="geometry" />
        </mxCell>
        <mxCell id="Jio9_Xvqp7xOdHNEGPPu-73" value="&lt;font style=&quot;font-size: 22px;&quot;&gt;&lt;b style=&quot;&quot;&gt;+&lt;/b&gt;&lt;/font&gt;" style="text;html=1;align=center;verticalAlign=middle;whiteSpace=wrap;rounded=1;strokeColor=default;glass=0;" vertex="1" parent="Jio9_Xvqp7xOdHNEGPPu-65">
          <mxGeometry x="6.950000000000054" y="61" width="60" height="30" as="geometry" />
        </mxCell>
        <mxCell id="Jio9_Xvqp7xOdHNEGPPu-74" value="&lt;font style=&quot;font-size: 22px;&quot;&gt;&lt;b style=&quot;&quot;&gt;+&lt;/b&gt;&lt;/font&gt;" style="text;html=1;align=center;verticalAlign=middle;whiteSpace=wrap;rounded=1;strokeColor=default;glass=0;" vertex="1" parent="Jio9_Xvqp7xOdHNEGPPu-65">
          <mxGeometry x="6.940000000000055" y="106" width="60" height="30" as="geometry" />
        </mxCell>
        <mxCell id="Jio9_Xvqp7xOdHNEGPPu-82" value="&lt;font style=&quot;font-size: 22px;&quot;&gt;&lt;b style=&quot;&quot;&gt;+&lt;/b&gt;&lt;/font&gt;" style="text;html=1;align=center;verticalAlign=middle;whiteSpace=wrap;rounded=1;strokeColor=default;glass=0;" vertex="1" parent="Jio9_Xvqp7xOdHNEGPPu-65">
          <mxGeometry x="6.9500000000000455" y="151" width="60" height="30" as="geometry" />
        </mxCell>
        <mxCell id="Jio9_Xvqp7xOdHNEGPPu-202" style="edgeStyle=orthogonalEdgeStyle;rounded=0;orthogonalLoop=1;jettySize=auto;html=1;exitX=0;exitY=0.25;exitDx=0;exitDy=0;" edge="1" parent="Jio9_Xvqp7xOdHNEGPPu-34" source="Jio9_Xvqp7xOdHNEGPPu-86">
          <mxGeometry relative="1" as="geometry">
            <mxPoint x="-200" y="200" as="targetPoint" />
          </mxGeometry>
        </mxCell>
        <mxCell id="Jio9_Xvqp7xOdHNEGPPu-86" value="Case Name" style="rounded=1;whiteSpace=wrap;html=1;" vertex="1" parent="Jio9_Xvqp7xOdHNEGPPu-34">
          <mxGeometry x="120" y="239" width="120" height="30" as="geometry" />
        </mxCell>
        <mxCell id="Jio9_Xvqp7xOdHNEGPPu-87" value="find case description" style="rounded=1;whiteSpace=wrap;html=1;" vertex="1" parent="Jio9_Xvqp7xOdHNEGPPu-34">
          <mxGeometry x="265" y="239" width="120" height="30" as="geometry" />
        </mxCell>
        <mxCell id="Jio9_Xvqp7xOdHNEGPPu-88" value="Status" style="rounded=1;whiteSpace=wrap;html=1;container=1;" vertex="1" parent="Jio9_Xvqp7xOdHNEGPPu-34">
          <mxGeometry x="410" y="239" width="120" height="30" as="geometry" />
        </mxCell>
        <mxCell id="Jio9_Xvqp7xOdHNEGPPu-90" value="&lt;font style=&quot;font-size: 17px;&quot;&gt;+&lt;/font&gt;" style="text;html=1;align=center;verticalAlign=middle;whiteSpace=wrap;rounded=0;" vertex="1" parent="Jio9_Xvqp7xOdHNEGPPu-34">
          <mxGeometry x="410" y="240" width="40" height="30" as="geometry" />
        </mxCell>
        <mxCell id="Jio9_Xvqp7xOdHNEGPPu-91" value="find status description" style="rounded=1;whiteSpace=wrap;html=1;" vertex="1" parent="Jio9_Xvqp7xOdHNEGPPu-34">
          <mxGeometry x="548" y="239" width="120" height="30" as="geometry" />
        </mxCell>
        <mxCell id="Jio9_Xvqp7xOdHNEGPPu-92" value="&lt;font style=&quot;font-size: 17px;&quot;&gt;&lt;b&gt;&amp;nbsp;+&amp;nbsp; &amp;nbsp;&lt;/b&gt;&lt;/font&gt;Asigned User" style="rounded=1;whiteSpace=wrap;html=1;align=left;" vertex="1" parent="Jio9_Xvqp7xOdHNEGPPu-34">
          <mxGeometry x="690" y="239" width="120" height="30" as="geometry" />
        </mxCell>
        <mxCell id="Jio9_Xvqp7xOdHNEGPPu-94" value="" style="rounded=1;whiteSpace=wrap;html=1;container=1;" vertex="1" parent="Jio9_Xvqp7xOdHNEGPPu-34">
          <mxGeometry x="120" y="560" width="840" height="220" as="geometry">
            <mxRectangle x="50" y="310" width="50" height="40" as="alternateBounds" />
          </mxGeometry>
        </mxCell>
        <mxCell id="Jio9_Xvqp7xOdHNEGPPu-95" value="&lt;h1 style=&quot;margin-top: 0px;&quot;&gt;&lt;span style=&quot;font-size: 12px; font-weight: 400;&quot;&gt;Lorem ipsum dolor sit amet,&amp;nbsp;&lt;/span&gt;&lt;span style=&quot;background-color: transparent; color: light-dark(rgb(0, 0, 0), rgb(255, 255, 255)); font-size: 12px; font-weight: normal;&quot;&gt;Lorem ipsum dolor sit amet, consectetur adipisicing elit, sed do eiusmod tempor incididunt ut labore et dolore magna aliqua.&amp;nbsp;&lt;/span&gt;&lt;span style=&quot;background-color: transparent; color: light-dark(rgb(0, 0, 0), rgb(255, 255, 255)); font-size: 12px; font-weight: normal;&quot;&gt;Lorem ipsum dolor sit amet, consectetur adipisicing elit, sed do eiusmod tempor incididunt ut labore et dolore magna aliqua.&lt;/span&gt;&lt;span style=&quot;background-color: transparent; color: light-dark(rgb(0, 0, 0), rgb(255, 255, 255)); font-size: 12px; font-weight: 400;&quot;&gt;Lorem ipsum dolor sit amet,&amp;nbsp;&lt;/span&gt;&lt;span style=&quot;background-color: transparent; color: light-dark(rgb(0, 0, 0), rgb(255, 255, 255)); font-size: 12px; font-weight: normal;&quot;&gt;Lorem ipsum dolor sit amet, consectetur adipisicing elit, sed do eiusmod tempor incididunt ut labore et dolore magna aliqua.&amp;nbsp;&lt;/span&gt;&lt;span style=&quot;background-color: transparent; color: light-dark(rgb(0, 0, 0), rgb(255, 255, 255)); font-size: 12px; font-weight: normal;&quot;&gt;Lorem ipsum dolor sit amet, consectetur adipisicing elit, sed do eiusmod tempor incididunt ut labore et dolore magna aliqua.&lt;/span&gt;&lt;/h1&gt;" style="text;html=1;whiteSpace=wrap;overflow=hidden;rounded=0;" vertex="1" parent="Jio9_Xvqp7xOdHNEGPPu-94">
          <mxGeometry x="28.13" y="70" width="590.63" height="130" as="geometry" />
        </mxCell>
        <mxCell id="Jio9_Xvqp7xOdHNEGPPu-96" value="&lt;h2&gt;Case Name&lt;/h2&gt;" style="text;html=1;align=center;verticalAlign=middle;whiteSpace=wrap;rounded=0;" vertex="1" parent="Jio9_Xvqp7xOdHNEGPPu-94">
          <mxGeometry x="18.75" y="20" width="112.5" height="30" as="geometry" />
        </mxCell>
        <mxCell id="Jio9_Xvqp7xOdHNEGPPu-97" value="&lt;i&gt;&lt;font style=&quot;color: rgb(51, 51, 51);&quot;&gt;start time - end time&lt;/font&gt;&lt;/i&gt;" style="text;html=1;align=left;verticalAlign=middle;whiteSpace=wrap;rounded=0;" vertex="1" parent="Jio9_Xvqp7xOdHNEGPPu-94">
          <mxGeometry x="140.62" y="25" width="129.38" height="25" as="geometry" />
        </mxCell>
        <mxCell id="Jio9_Xvqp7xOdHNEGPPu-98" value="Open by &lt;b&gt;Opened User&lt;/b&gt;" style="text;html=1;align=left;verticalAlign=middle;whiteSpace=wrap;rounded=0;" vertex="1" parent="Jio9_Xvqp7xOdHNEGPPu-94">
          <mxGeometry x="640" y="70" width="180" height="30" as="geometry" />
        </mxCell>
        <mxCell id="Jio9_Xvqp7xOdHNEGPPu-99" value="CaseStatus" style="rounded=1;whiteSpace=wrap;html=1;" vertex="1" parent="Jio9_Xvqp7xOdHNEGPPu-94">
          <mxGeometry x="679.6875" y="15" width="103.12499999999999" height="40" as="geometry" />
        </mxCell>
        <mxCell id="Jio9_Xvqp7xOdHNEGPPu-100" value="" style="line;strokeWidth=2;html=1;strokeColor=#B3B3B3;" vertex="1" parent="Jio9_Xvqp7xOdHNEGPPu-94">
          <mxGeometry x="28.125" y="50" width="600" height="10" as="geometry" />
        </mxCell>
        <mxCell id="Jio9_Xvqp7xOdHNEGPPu-101" value="Assigned to&amp;nbsp;" style="text;html=1;align=left;verticalAlign=middle;whiteSpace=wrap;rounded=0;" vertex="1" parent="Jio9_Xvqp7xOdHNEGPPu-94">
          <mxGeometry x="640" y="106" width="180" height="30" as="geometry" />
        </mxCell>
        <mxCell id="Jio9_Xvqp7xOdHNEGPPu-103" value="&lt;b&gt;Assigned&lt;/b&gt;" style="rounded=1;whiteSpace=wrap;html=1;" vertex="1" parent="Jio9_Xvqp7xOdHNEGPPu-94">
          <mxGeometry x="679.69" y="150" width="103.12499999999999" height="40" as="geometry" />
        </mxCell>
        <mxCell id="Jio9_Xvqp7xOdHNEGPPu-75" value="Ekle" style="text;html=1;align=center;verticalAlign=middle;whiteSpace=wrap;rounded=0;" vertex="1" parent="1">
          <mxGeometry x="1270" y="490" width="60" height="30" as="geometry" />
        </mxCell>
        <mxCell id="Jio9_Xvqp7xOdHNEGPPu-77" style="edgeStyle=orthogonalEdgeStyle;rounded=0;orthogonalLoop=1;jettySize=auto;html=1;exitX=0;exitY=0.25;exitDx=0;exitDy=0;" edge="1" parent="1" source="Jio9_Xvqp7xOdHNEGPPu-69" target="Jio9_Xvqp7xOdHNEGPPu-75">
          <mxGeometry relative="1" as="geometry" />
        </mxCell>
        <mxCell id="Jio9_Xvqp7xOdHNEGPPu-78" value="Oluşturduğum" style="text;html=1;align=center;verticalAlign=middle;whiteSpace=wrap;rounded=0;" vertex="1" parent="1">
          <mxGeometry x="1270" y="540" width="60" height="30" as="geometry" />
        </mxCell>
        <mxCell id="Jio9_Xvqp7xOdHNEGPPu-79" style="edgeStyle=orthogonalEdgeStyle;rounded=0;orthogonalLoop=1;jettySize=auto;html=1;exitX=0;exitY=0.25;exitDx=0;exitDy=0;" edge="1" parent="1" source="Jio9_Xvqp7xOdHNEGPPu-73" target="Jio9_Xvqp7xOdHNEGPPu-78">
          <mxGeometry relative="1" as="geometry" />
        </mxCell>
        <mxCell id="Jio9_Xvqp7xOdHNEGPPu-80" value="Bana Atananlar" style="text;html=1;align=center;verticalAlign=middle;whiteSpace=wrap;rounded=0;" vertex="1" parent="1">
          <mxGeometry x="1260" y="585" width="60" height="30" as="geometry" />
        </mxCell>
        <mxCell id="Jio9_Xvqp7xOdHNEGPPu-81" style="edgeStyle=orthogonalEdgeStyle;rounded=0;orthogonalLoop=1;jettySize=auto;html=1;exitX=0;exitY=0.5;exitDx=0;exitDy=0;" edge="1" parent="1" source="Jio9_Xvqp7xOdHNEGPPu-74" target="Jio9_Xvqp7xOdHNEGPPu-80">
          <mxGeometry relative="1" as="geometry" />
        </mxCell>
        <mxCell id="Jio9_Xvqp7xOdHNEGPPu-83" value="Main" style="text;html=1;align=center;verticalAlign=middle;whiteSpace=wrap;rounded=0;" vertex="1" parent="1">
          <mxGeometry x="1260" y="630" width="60" height="30" as="geometry" />
        </mxCell>
        <mxCell id="Jio9_Xvqp7xOdHNEGPPu-84" style="edgeStyle=orthogonalEdgeStyle;rounded=0;orthogonalLoop=1;jettySize=auto;html=1;exitX=0;exitY=0.25;exitDx=0;exitDy=0;" edge="1" parent="1" source="Jio9_Xvqp7xOdHNEGPPu-82" target="Jio9_Xvqp7xOdHNEGPPu-83">
          <mxGeometry relative="1" as="geometry" />
        </mxCell>
        <mxCell id="Jio9_Xvqp7xOdHNEGPPu-104" value="" style="strokeWidth=1;shadow=0;dashed=0;align=center;html=1;shape=mxgraph.mockup.containers.browserWindow;rSize=0;strokeColor=#666666;strokeColor2=#008cff;strokeColor3=#c4c4c4;mainText=,;recursiveResize=0;overflow=hidden;resizable=0;fillOpacity=100;strokeOpacity=100;" vertex="1" parent="1">
          <mxGeometry x="1420" y="1040" width="1024" height="768" as="geometry" />
        </mxCell>
        <mxCell id="Jio9_Xvqp7xOdHNEGPPu-105" value="Page 1" style="strokeWidth=1;shadow=0;dashed=0;align=center;html=1;shape=mxgraph.mockup.containers.anchor;fontSize=17;fontColor=#666666;align=left;whiteSpace=wrap;" vertex="1" parent="Jio9_Xvqp7xOdHNEGPPu-104">
          <mxGeometry x="60" y="12" width="110" height="26" as="geometry" />
        </mxCell>
        <mxCell id="Jio9_Xvqp7xOdHNEGPPu-106" value="https://www.draw.io" style="strokeWidth=1;shadow=0;dashed=0;align=center;html=1;shape=mxgraph.mockup.containers.anchor;rSize=0;fontSize=17;fontColor=#666666;align=left;" vertex="1" parent="Jio9_Xvqp7xOdHNEGPPu-104">
          <mxGeometry x="130" y="60" width="250" height="26" as="geometry" />
        </mxCell>
        <mxCell id="Jio9_Xvqp7xOdHNEGPPu-107" value="&lt;h3&gt;&lt;font style=&quot;font-size: 15px;&quot;&gt;Çıkış&lt;/font&gt;&lt;/h3&gt;" style="rounded=1;whiteSpace=wrap;html=1;" vertex="1" parent="Jio9_Xvqp7xOdHNEGPPu-104">
          <mxGeometry x="850" y="140" width="120" height="40" as="geometry" />
        </mxCell>
        <mxCell id="Jio9_Xvqp7xOdHNEGPPu-108" value="&lt;h1&gt;&lt;b&gt;Bekir PİRALP&lt;/b&gt;&lt;/h1&gt;" style="text;html=1;align=left;verticalAlign=middle;whiteSpace=wrap;rounded=0;fontSize=14;" vertex="1" parent="Jio9_Xvqp7xOdHNEGPPu-104">
          <mxGeometry x="50" y="130" width="220" height="60" as="geometry" />
        </mxCell>
        <mxCell id="Jio9_Xvqp7xOdHNEGPPu-109" value="&lt;h2&gt;&lt;span style=&quot;font-weight: normal;&quot;&gt;&lt;i&gt;test01@mail.com&lt;/i&gt;&lt;/span&gt;&lt;/h2&gt;" style="text;html=1;align=center;verticalAlign=middle;whiteSpace=wrap;rounded=0;" vertex="1" parent="Jio9_Xvqp7xOdHNEGPPu-104">
          <mxGeometry x="260" y="150" width="130" height="30" as="geometry" />
        </mxCell>
        <mxCell id="Jio9_Xvqp7xOdHNEGPPu-110" value="" style="line;strokeWidth=2;html=1;" vertex="1" parent="Jio9_Xvqp7xOdHNEGPPu-104">
          <mxGeometry x="35" y="210" width="955" height="10" as="geometry" />
        </mxCell>
        <mxCell id="Jio9_Xvqp7xOdHNEGPPu-111" value="" style="rounded=1;whiteSpace=wrap;html=1;container=1;" vertex="1" parent="Jio9_Xvqp7xOdHNEGPPu-104">
          <mxGeometry x="120" y="310" width="840" height="220" as="geometry">
            <mxRectangle x="50" y="310" width="50" height="40" as="alternateBounds" />
          </mxGeometry>
        </mxCell>
        <mxCell id="Jio9_Xvqp7xOdHNEGPPu-112" value="&lt;h1 style=&quot;margin-top: 0px;&quot;&gt;&lt;span style=&quot;font-size: 12px; font-weight: 400;&quot;&gt;Lorem ipsum dolor sit amet,&amp;nbsp;&lt;/span&gt;&lt;span style=&quot;background-color: transparent; color: light-dark(rgb(0, 0, 0), rgb(255, 255, 255)); font-size: 12px; font-weight: normal;&quot;&gt;Lorem ipsum dolor sit amet, consectetur adipisicing elit, sed do eiusmod tempor incididunt ut labore et dolore magna aliqua.&amp;nbsp;&lt;/span&gt;&lt;span style=&quot;background-color: transparent; color: light-dark(rgb(0, 0, 0), rgb(255, 255, 255)); font-size: 12px; font-weight: normal;&quot;&gt;Lorem ipsum dolor sit amet, consectetur adipisicing elit, sed do eiusmod tempor incididunt ut labore et dolore magna aliqua.&lt;/span&gt;&lt;span style=&quot;background-color: transparent; color: light-dark(rgb(0, 0, 0), rgb(255, 255, 255)); font-size: 12px; font-weight: 400;&quot;&gt;Lorem ipsum dolor sit amet,&amp;nbsp;&lt;/span&gt;&lt;span style=&quot;background-color: transparent; color: light-dark(rgb(0, 0, 0), rgb(255, 255, 255)); font-size: 12px; font-weight: normal;&quot;&gt;Lorem ipsum dolor sit amet, consectetur adipisicing elit, sed do eiusmod tempor incididunt ut labore et dolore magna aliqua.&amp;nbsp;&lt;/span&gt;&lt;span style=&quot;background-color: transparent; color: light-dark(rgb(0, 0, 0), rgb(255, 255, 255)); font-size: 12px; font-weight: normal;&quot;&gt;Lorem ipsum dolor sit amet, consectetur adipisicing elit, sed do eiusmod tempor incididunt ut labore et dolore magna aliqua.&lt;/span&gt;&lt;/h1&gt;" style="text;html=1;whiteSpace=wrap;overflow=hidden;rounded=0;" vertex="1" parent="Jio9_Xvqp7xOdHNEGPPu-111">
          <mxGeometry x="28.13" y="70" width="590.63" height="130" as="geometry" />
        </mxCell>
        <mxCell id="Jio9_Xvqp7xOdHNEGPPu-113" value="&lt;h2&gt;Case Name&lt;/h2&gt;" style="text;html=1;align=center;verticalAlign=middle;whiteSpace=wrap;rounded=0;" vertex="1" parent="Jio9_Xvqp7xOdHNEGPPu-111">
          <mxGeometry x="18.75" y="20" width="112.5" height="30" as="geometry" />
        </mxCell>
        <mxCell id="Jio9_Xvqp7xOdHNEGPPu-114" value="&lt;i&gt;&lt;font style=&quot;color: rgb(51, 51, 51);&quot;&gt;start time - end time&lt;/font&gt;&lt;/i&gt;" style="text;html=1;align=left;verticalAlign=middle;whiteSpace=wrap;rounded=0;" vertex="1" parent="Jio9_Xvqp7xOdHNEGPPu-111">
          <mxGeometry x="140.62" y="25" width="129.38" height="25" as="geometry" />
        </mxCell>
        <mxCell id="Jio9_Xvqp7xOdHNEGPPu-115" value="Open by &lt;b&gt;Opened User&lt;/b&gt;" style="text;html=1;align=left;verticalAlign=middle;whiteSpace=wrap;rounded=0;" vertex="1" parent="Jio9_Xvqp7xOdHNEGPPu-111">
          <mxGeometry x="640" y="70" width="180" height="30" as="geometry" />
        </mxCell>
        <mxCell id="Jio9_Xvqp7xOdHNEGPPu-116" value="CaseStatus" style="rounded=1;whiteSpace=wrap;html=1;" vertex="1" parent="Jio9_Xvqp7xOdHNEGPPu-111">
          <mxGeometry x="679.6875" y="15" width="103.12499999999999" height="40" as="geometry" />
        </mxCell>
        <mxCell id="Jio9_Xvqp7xOdHNEGPPu-117" value="" style="line;strokeWidth=2;html=1;strokeColor=#B3B3B3;" vertex="1" parent="Jio9_Xvqp7xOdHNEGPPu-111">
          <mxGeometry x="28.125" y="50" width="600" height="10" as="geometry" />
        </mxCell>
        <mxCell id="Jio9_Xvqp7xOdHNEGPPu-118" value="Assigned to &lt;b&gt;assigned User&lt;/b&gt;" style="text;html=1;align=left;verticalAlign=middle;whiteSpace=wrap;rounded=0;" vertex="1" parent="Jio9_Xvqp7xOdHNEGPPu-111">
          <mxGeometry x="640" y="106" width="180" height="30" as="geometry" />
        </mxCell>
        <mxCell id="Jio9_Xvqp7xOdHNEGPPu-119" value="" style="rounded=1;whiteSpace=wrap;html=1;container=1;portConstraint=none;overflow=hidden;" vertex="1" parent="Jio9_Xvqp7xOdHNEGPPu-104">
          <mxGeometry y="329" width="73.89" height="211" as="geometry" />
        </mxCell>
        <mxCell id="Jio9_Xvqp7xOdHNEGPPu-120" value="&lt;font style=&quot;font-size: 22px;&quot;&gt;&lt;b style=&quot;&quot;&gt;+&lt;/b&gt;&lt;/font&gt;" style="text;html=1;align=center;verticalAlign=middle;whiteSpace=wrap;rounded=1;strokeColor=default;glass=0;" vertex="1" parent="Jio9_Xvqp7xOdHNEGPPu-119">
          <mxGeometry x="5" y="15" width="60" height="30" as="geometry" />
        </mxCell>
        <mxCell id="Jio9_Xvqp7xOdHNEGPPu-121" value="&lt;font style=&quot;font-size: 22px;&quot;&gt;&lt;b style=&quot;&quot;&gt;+&lt;/b&gt;&lt;/font&gt;" style="text;html=1;align=center;verticalAlign=middle;whiteSpace=wrap;rounded=1;strokeColor=default;glass=0;" vertex="1" parent="Jio9_Xvqp7xOdHNEGPPu-119">
          <mxGeometry x="6.950000000000054" y="61" width="60" height="30" as="geometry" />
        </mxCell>
        <mxCell id="Jio9_Xvqp7xOdHNEGPPu-122" value="&lt;font style=&quot;font-size: 22px;&quot;&gt;&lt;b style=&quot;&quot;&gt;+&lt;/b&gt;&lt;/font&gt;" style="text;html=1;align=center;verticalAlign=middle;whiteSpace=wrap;rounded=1;strokeColor=default;glass=0;" vertex="1" parent="Jio9_Xvqp7xOdHNEGPPu-119">
          <mxGeometry x="6.940000000000055" y="106" width="60" height="30" as="geometry" />
        </mxCell>
        <mxCell id="Jio9_Xvqp7xOdHNEGPPu-123" value="&lt;font style=&quot;font-size: 22px;&quot;&gt;&lt;b style=&quot;&quot;&gt;+&lt;/b&gt;&lt;/font&gt;" style="text;html=1;align=center;verticalAlign=middle;whiteSpace=wrap;rounded=1;strokeColor=default;glass=0;" vertex="1" parent="Jio9_Xvqp7xOdHNEGPPu-119">
          <mxGeometry x="6.9500000000000455" y="151" width="60" height="30" as="geometry" />
        </mxCell>
        <mxCell id="Jio9_Xvqp7xOdHNEGPPu-124" value="Case Name" style="rounded=1;whiteSpace=wrap;html=1;" vertex="1" parent="Jio9_Xvqp7xOdHNEGPPu-104">
          <mxGeometry x="120" y="239" width="120" height="30" as="geometry" />
        </mxCell>
        <mxCell id="Jio9_Xvqp7xOdHNEGPPu-125" value="find case description" style="rounded=1;whiteSpace=wrap;html=1;" vertex="1" parent="Jio9_Xvqp7xOdHNEGPPu-104">
          <mxGeometry x="265" y="239" width="120" height="30" as="geometry" />
        </mxCell>
        <mxCell id="Jio9_Xvqp7xOdHNEGPPu-126" value="Status" style="rounded=1;whiteSpace=wrap;html=1;container=1;" vertex="1" parent="Jio9_Xvqp7xOdHNEGPPu-104">
          <mxGeometry x="410" y="239" width="120" height="30" as="geometry" />
        </mxCell>
        <mxCell id="Jio9_Xvqp7xOdHNEGPPu-127" value="&lt;font style=&quot;font-size: 17px;&quot;&gt;+&lt;/font&gt;" style="text;html=1;align=center;verticalAlign=middle;whiteSpace=wrap;rounded=0;" vertex="1" parent="Jio9_Xvqp7xOdHNEGPPu-104">
          <mxGeometry x="410" y="240" width="40" height="30" as="geometry" />
        </mxCell>
        <mxCell id="Jio9_Xvqp7xOdHNEGPPu-128" value="find status description" style="rounded=1;whiteSpace=wrap;html=1;" vertex="1" parent="Jio9_Xvqp7xOdHNEGPPu-104">
          <mxGeometry x="548" y="239" width="120" height="30" as="geometry" />
        </mxCell>
        <mxCell id="Jio9_Xvqp7xOdHNEGPPu-129" value="&lt;font style=&quot;font-size: 17px;&quot;&gt;&lt;b&gt;&amp;nbsp;+&amp;nbsp; &amp;nbsp;&lt;/b&gt;&lt;/font&gt;Asigned User" style="rounded=1;whiteSpace=wrap;html=1;align=left;" vertex="1" parent="Jio9_Xvqp7xOdHNEGPPu-104">
          <mxGeometry x="690" y="239" width="120" height="30" as="geometry" />
        </mxCell>
        <mxCell id="Jio9_Xvqp7xOdHNEGPPu-130" value="" style="rounded=1;whiteSpace=wrap;html=1;container=1;" vertex="1" parent="Jio9_Xvqp7xOdHNEGPPu-104">
          <mxGeometry x="120" y="560" width="840" height="220" as="geometry">
            <mxRectangle x="50" y="310" width="50" height="40" as="alternateBounds" />
          </mxGeometry>
        </mxCell>
        <mxCell id="Jio9_Xvqp7xOdHNEGPPu-131" value="&lt;h1 style=&quot;margin-top: 0px;&quot;&gt;&lt;span style=&quot;font-size: 12px; font-weight: 400;&quot;&gt;Lorem ipsum dolor sit amet,&amp;nbsp;&lt;/span&gt;&lt;span style=&quot;background-color: transparent; color: light-dark(rgb(0, 0, 0), rgb(255, 255, 255)); font-size: 12px; font-weight: normal;&quot;&gt;Lorem ipsum dolor sit amet, consectetur adipisicing elit, sed do eiusmod tempor incididunt ut labore et dolore magna aliqua.&amp;nbsp;&lt;/span&gt;&lt;span style=&quot;background-color: transparent; color: light-dark(rgb(0, 0, 0), rgb(255, 255, 255)); font-size: 12px; font-weight: normal;&quot;&gt;Lorem ipsum dolor sit amet, consectetur adipisicing elit, sed do eiusmod tempor incididunt ut labore et dolore magna aliqua.&lt;/span&gt;&lt;span style=&quot;background-color: transparent; color: light-dark(rgb(0, 0, 0), rgb(255, 255, 255)); font-size: 12px; font-weight: 400;&quot;&gt;Lorem ipsum dolor sit amet,&amp;nbsp;&lt;/span&gt;&lt;span style=&quot;background-color: transparent; color: light-dark(rgb(0, 0, 0), rgb(255, 255, 255)); font-size: 12px; font-weight: normal;&quot;&gt;Lorem ipsum dolor sit amet, consectetur adipisicing elit, sed do eiusmod tempor incididunt ut labore et dolore magna aliqua.&amp;nbsp;&lt;/span&gt;&lt;span style=&quot;background-color: transparent; color: light-dark(rgb(0, 0, 0), rgb(255, 255, 255)); font-size: 12px; font-weight: normal;&quot;&gt;Lorem ipsum dolor sit amet, consectetur adipisicing elit, sed do eiusmod tempor incididunt ut labore et dolore magna aliqua.&lt;/span&gt;&lt;/h1&gt;" style="text;html=1;whiteSpace=wrap;overflow=hidden;rounded=0;" vertex="1" parent="Jio9_Xvqp7xOdHNEGPPu-130">
          <mxGeometry x="28.13" y="70" width="590.63" height="130" as="geometry" />
        </mxCell>
        <mxCell id="Jio9_Xvqp7xOdHNEGPPu-132" value="&lt;h2&gt;Case Name&lt;/h2&gt;" style="text;html=1;align=center;verticalAlign=middle;whiteSpace=wrap;rounded=0;" vertex="1" parent="Jio9_Xvqp7xOdHNEGPPu-130">
          <mxGeometry x="18.75" y="20" width="112.5" height="30" as="geometry" />
        </mxCell>
        <mxCell id="Jio9_Xvqp7xOdHNEGPPu-133" value="&lt;i&gt;&lt;font style=&quot;color: rgb(51, 51, 51);&quot;&gt;start time - end time&lt;/font&gt;&lt;/i&gt;" style="text;html=1;align=left;verticalAlign=middle;whiteSpace=wrap;rounded=0;" vertex="1" parent="Jio9_Xvqp7xOdHNEGPPu-130">
          <mxGeometry x="140.62" y="25" width="129.38" height="25" as="geometry" />
        </mxCell>
        <mxCell id="Jio9_Xvqp7xOdHNEGPPu-134" value="Open by &lt;b&gt;Opened User&lt;/b&gt;" style="text;html=1;align=left;verticalAlign=middle;whiteSpace=wrap;rounded=0;" vertex="1" parent="Jio9_Xvqp7xOdHNEGPPu-130">
          <mxGeometry x="640" y="70" width="180" height="30" as="geometry" />
        </mxCell>
        <mxCell id="Jio9_Xvqp7xOdHNEGPPu-135" value="CaseStatus" style="rounded=1;whiteSpace=wrap;html=1;" vertex="1" parent="Jio9_Xvqp7xOdHNEGPPu-130">
          <mxGeometry x="679.6875" y="15" width="103.12499999999999" height="40" as="geometry" />
        </mxCell>
        <mxCell id="Jio9_Xvqp7xOdHNEGPPu-136" value="" style="line;strokeWidth=2;html=1;strokeColor=#B3B3B3;" vertex="1" parent="Jio9_Xvqp7xOdHNEGPPu-130">
          <mxGeometry x="28.125" y="50" width="600" height="10" as="geometry" />
        </mxCell>
        <mxCell id="Jio9_Xvqp7xOdHNEGPPu-137" value="Assigned to&amp;nbsp;" style="text;html=1;align=left;verticalAlign=middle;whiteSpace=wrap;rounded=0;" vertex="1" parent="Jio9_Xvqp7xOdHNEGPPu-130">
          <mxGeometry x="640" y="106" width="180" height="30" as="geometry" />
        </mxCell>
        <mxCell id="Jio9_Xvqp7xOdHNEGPPu-138" value="&lt;b&gt;Assigned&lt;/b&gt;" style="rounded=1;whiteSpace=wrap;html=1;" vertex="1" parent="Jio9_Xvqp7xOdHNEGPPu-130">
          <mxGeometry x="679.69" y="150" width="103.12499999999999" height="40" as="geometry" />
        </mxCell>
        <mxCell id="Jio9_Xvqp7xOdHNEGPPu-139" value="" style="rounded=1;whiteSpace=wrap;html=1;container=1;strokeOpacity=100;fillOpacity=100;" vertex="1" parent="Jio9_Xvqp7xOdHNEGPPu-104">
          <mxGeometry x="290" y="240" width="420" height="400" as="geometry" />
        </mxCell>
        <mxCell id="Jio9_Xvqp7xOdHNEGPPu-140" value="" style="rounded=1;whiteSpace=wrap;html=1;container=1;" vertex="1" parent="Jio9_Xvqp7xOdHNEGPPu-139">
          <mxGeometry x="115" y="104.34782608695652" width="190" height="40" as="geometry" />
        </mxCell>
        <mxCell id="Jio9_Xvqp7xOdHNEGPPu-141" value="&lt;b&gt;&lt;font style=&quot;font-size: 17px;&quot;&gt;+&lt;/font&gt;&lt;/b&gt;" style="text;html=1;align=center;verticalAlign=middle;whiteSpace=wrap;rounded=0;" vertex="1" parent="Jio9_Xvqp7xOdHNEGPPu-140">
          <mxGeometry x="15" y="9.285714285714286" width="55" height="21.42857142857143" as="geometry" />
        </mxCell>
        <mxCell id="Jio9_Xvqp7xOdHNEGPPu-142" value="&lt;b&gt;&lt;font style=&quot;font-size: 15px;&quot;&gt;Users&lt;/font&gt;&lt;/b&gt;" style="text;html=1;align=center;verticalAlign=middle;whiteSpace=wrap;rounded=0;" vertex="1" parent="Jio9_Xvqp7xOdHNEGPPu-140">
          <mxGeometry x="85" y="9.285714285714286" width="60" height="21.42857142857143" as="geometry" />
        </mxCell>
        <mxCell id="Jio9_Xvqp7xOdHNEGPPu-143" value="&lt;h1&gt;&lt;b&gt;Görevlendir&lt;/b&gt;&lt;/h1&gt;" style="text;html=1;align=center;verticalAlign=middle;whiteSpace=wrap;rounded=0;" vertex="1" parent="Jio9_Xvqp7xOdHNEGPPu-139">
          <mxGeometry x="80" y="27.826086956521742" width="280" height="52.17391304347826" as="geometry" />
        </mxCell>
        <mxCell id="Jio9_Xvqp7xOdHNEGPPu-144" value="&lt;font style=&quot;font-size: 15px;&quot;&gt;İptal&lt;/font&gt;" style="rounded=1;whiteSpace=wrap;html=1;" vertex="1" parent="Jio9_Xvqp7xOdHNEGPPu-139">
          <mxGeometry x="70" y="330" width="120" height="40" as="geometry" />
        </mxCell>
        <mxCell id="Jio9_Xvqp7xOdHNEGPPu-145" value="&lt;span style=&quot;font-size: 15px;&quot;&gt;Kaydet&lt;/span&gt;" style="rounded=1;whiteSpace=wrap;html=1;" vertex="1" parent="Jio9_Xvqp7xOdHNEGPPu-139">
          <mxGeometry x="237" y="330" width="120" height="40" as="geometry" />
        </mxCell>
        <mxCell id="Jio9_Xvqp7xOdHNEGPPu-183" value="Görevlendirme açıklaması&amp;nbsp;" style="rounded=1;whiteSpace=wrap;html=1;" vertex="1" parent="Jio9_Xvqp7xOdHNEGPPu-139">
          <mxGeometry x="77" y="160" width="280" height="140" as="geometry" />
        </mxCell>
        <mxCell id="Jio9_Xvqp7xOdHNEGPPu-182" style="edgeStyle=orthogonalEdgeStyle;rounded=0;orthogonalLoop=1;jettySize=auto;html=1;exitX=0.5;exitY=1;exitDx=0;exitDy=0;" edge="1" parent="Jio9_Xvqp7xOdHNEGPPu-104" source="Jio9_Xvqp7xOdHNEGPPu-139" target="Jio9_Xvqp7xOdHNEGPPu-139">
          <mxGeometry relative="1" as="geometry" />
        </mxCell>
        <mxCell id="Jio9_Xvqp7xOdHNEGPPu-146" value="" style="strokeWidth=1;shadow=0;dashed=0;align=center;html=1;shape=mxgraph.mockup.containers.browserWindow;rSize=0;strokeColor=#666666;strokeColor2=#008cff;strokeColor3=#c4c4c4;mainText=,;recursiveResize=0;overflow=hidden;resizable=0;" vertex="1" parent="1">
          <mxGeometry x="2710" y="170" width="1024" height="820" as="geometry" />
        </mxCell>
        <mxCell id="Jio9_Xvqp7xOdHNEGPPu-147" value="Page 1" style="strokeWidth=1;shadow=0;dashed=0;align=center;html=1;shape=mxgraph.mockup.containers.anchor;fontSize=17;fontColor=#666666;align=left;whiteSpace=wrap;" vertex="1" parent="Jio9_Xvqp7xOdHNEGPPu-146">
          <mxGeometry x="60" y="12" width="110" height="26" as="geometry" />
        </mxCell>
        <mxCell id="Jio9_Xvqp7xOdHNEGPPu-148" value="https://www.draw.io" style="strokeWidth=1;shadow=0;dashed=0;align=center;html=1;shape=mxgraph.mockup.containers.anchor;rSize=0;fontSize=17;fontColor=#666666;align=left;" vertex="1" parent="Jio9_Xvqp7xOdHNEGPPu-146">
          <mxGeometry x="130" y="60" width="250" height="26" as="geometry" />
        </mxCell>
        <mxCell id="Jio9_Xvqp7xOdHNEGPPu-149" value="&lt;h3&gt;&lt;font style=&quot;font-size: 15px;&quot;&gt;Çıkış&lt;/font&gt;&lt;/h3&gt;" style="rounded=1;whiteSpace=wrap;html=1;" vertex="1" parent="Jio9_Xvqp7xOdHNEGPPu-146">
          <mxGeometry x="850" y="140" width="120" height="40" as="geometry" />
        </mxCell>
        <mxCell id="Jio9_Xvqp7xOdHNEGPPu-150" value="&lt;h1&gt;&lt;b&gt;Bekir PİRALP&lt;/b&gt;&lt;/h1&gt;" style="text;html=1;align=left;verticalAlign=middle;whiteSpace=wrap;rounded=0;fontSize=14;" vertex="1" parent="Jio9_Xvqp7xOdHNEGPPu-146">
          <mxGeometry x="50" y="130" width="220" height="60" as="geometry" />
        </mxCell>
        <mxCell id="Jio9_Xvqp7xOdHNEGPPu-151" value="&lt;h2&gt;&lt;span style=&quot;font-weight: normal;&quot;&gt;&lt;i&gt;test01@mail.com&lt;/i&gt;&lt;/span&gt;&lt;/h2&gt;" style="text;html=1;align=center;verticalAlign=middle;whiteSpace=wrap;rounded=0;" vertex="1" parent="Jio9_Xvqp7xOdHNEGPPu-146">
          <mxGeometry x="260" y="150" width="130" height="30" as="geometry" />
        </mxCell>
        <mxCell id="Jio9_Xvqp7xOdHNEGPPu-152" value="" style="line;strokeWidth=2;html=1;" vertex="1" parent="Jio9_Xvqp7xOdHNEGPPu-146">
          <mxGeometry x="35" y="210" width="955" height="10" as="geometry" />
        </mxCell>
        <mxCell id="Jio9_Xvqp7xOdHNEGPPu-153" value="" style="rounded=1;whiteSpace=wrap;html=1;container=1;" vertex="1" parent="Jio9_Xvqp7xOdHNEGPPu-146">
          <mxGeometry x="120" y="310" width="840" height="510" as="geometry">
            <mxRectangle x="50" y="310" width="50" height="40" as="alternateBounds" />
          </mxGeometry>
        </mxCell>
        <mxCell id="Jio9_Xvqp7xOdHNEGPPu-154" value="&lt;h1 style=&quot;margin-top: 0px;&quot;&gt;&lt;span style=&quot;font-size: 12px; font-weight: 400;&quot;&gt;Lorem ipsum dolor sit amet,&amp;nbsp;&lt;/span&gt;&lt;span style=&quot;background-color: transparent; color: light-dark(rgb(0, 0, 0), rgb(255, 255, 255)); font-size: 12px; font-weight: normal;&quot;&gt;Lorem ipsum dolor sit amet, consectetur adipisicing elit, sed do eiusmod tempor incididunt ut labore et dolore magna aliqua.&amp;nbsp;&lt;/span&gt;&lt;span style=&quot;background-color: transparent; color: light-dark(rgb(0, 0, 0), rgb(255, 255, 255)); font-size: 12px; font-weight: normal;&quot;&gt;Lorem ipsum dolor sit amet, consectetur adipisicing elit, sed do eiusmod tempor incididunt ut labore et dolore magna aliqua.&lt;/span&gt;&lt;span style=&quot;background-color: transparent; color: light-dark(rgb(0, 0, 0), rgb(255, 255, 255)); font-size: 12px; font-weight: 400;&quot;&gt;Lorem ipsum dolor sit amet,&amp;nbsp;&lt;/span&gt;&lt;span style=&quot;background-color: transparent; color: light-dark(rgb(0, 0, 0), rgb(255, 255, 255)); font-size: 12px; font-weight: normal;&quot;&gt;Lorem ipsum dolor sit amet, consectetur adipisicing elit, sed do eiusmod tempor incididunt ut labore et dolore magna aliqua.&amp;nbsp;&lt;/span&gt;&lt;span style=&quot;background-color: transparent; color: light-dark(rgb(0, 0, 0), rgb(255, 255, 255)); font-size: 12px; font-weight: normal;&quot;&gt;Lorem ipsum dolor sit amet, consectetur adipisicing elit, sed do eiusmod tempor incididunt ut labore et dolore magna aliqua.&lt;/span&gt;&lt;/h1&gt;" style="text;html=1;whiteSpace=wrap;overflow=hidden;rounded=0;" vertex="1" parent="Jio9_Xvqp7xOdHNEGPPu-153">
          <mxGeometry x="32.81" y="300" width="590.63" height="180" as="geometry" />
        </mxCell>
        <mxCell id="Jio9_Xvqp7xOdHNEGPPu-155" value="&lt;h2&gt;Case Name&lt;/h2&gt;" style="text;html=1;align=center;verticalAlign=middle;whiteSpace=wrap;rounded=0;" vertex="1" parent="Jio9_Xvqp7xOdHNEGPPu-153">
          <mxGeometry x="18.75" y="20" width="112.5" height="30" as="geometry" />
        </mxCell>
        <mxCell id="Jio9_Xvqp7xOdHNEGPPu-156" value="&lt;i&gt;&lt;font style=&quot;color: rgb(51, 51, 51);&quot;&gt;start time - end time&lt;/font&gt;&lt;/i&gt;" style="text;html=1;align=left;verticalAlign=middle;whiteSpace=wrap;rounded=0;" vertex="1" parent="Jio9_Xvqp7xOdHNEGPPu-153">
          <mxGeometry x="140.62" y="25" width="129.38" height="25" as="geometry" />
        </mxCell>
        <mxCell id="Jio9_Xvqp7xOdHNEGPPu-157" value="Open by &lt;b&gt;Opened User&lt;/b&gt;" style="text;html=1;align=left;verticalAlign=middle;whiteSpace=wrap;rounded=0;" vertex="1" parent="Jio9_Xvqp7xOdHNEGPPu-153">
          <mxGeometry x="640" y="70" width="180" height="30" as="geometry" />
        </mxCell>
        <mxCell id="Jio9_Xvqp7xOdHNEGPPu-158" value="CaseStatus" style="rounded=1;whiteSpace=wrap;html=1;" vertex="1" parent="Jio9_Xvqp7xOdHNEGPPu-153">
          <mxGeometry x="679.6875" y="15" width="103.12499999999999" height="40" as="geometry" />
        </mxCell>
        <mxCell id="Jio9_Xvqp7xOdHNEGPPu-159" value="" style="line;strokeWidth=2;html=1;strokeColor=#B3B3B3;" vertex="1" parent="Jio9_Xvqp7xOdHNEGPPu-153">
          <mxGeometry x="28.125" y="50" width="600" height="10" as="geometry" />
        </mxCell>
        <mxCell id="Jio9_Xvqp7xOdHNEGPPu-160" value="Assigned to &lt;b&gt;assigned User&lt;/b&gt;" style="text;html=1;align=left;verticalAlign=middle;whiteSpace=wrap;rounded=0;" vertex="1" parent="Jio9_Xvqp7xOdHNEGPPu-153">
          <mxGeometry x="640" y="106" width="180" height="30" as="geometry" />
        </mxCell>
        <mxCell id="Jio9_Xvqp7xOdHNEGPPu-184" value="" style="verticalLabelPosition=bottom;shadow=0;dashed=0;align=center;html=1;verticalAlign=top;strokeWidth=1;shape=mxgraph.mockup.markup.line;strokeColor=#999999;" vertex="1" parent="Jio9_Xvqp7xOdHNEGPPu-153">
          <mxGeometry x="28.130000000000003" y="145" width="550" height="20" as="geometry" />
        </mxCell>
        <mxCell id="Jio9_Xvqp7xOdHNEGPPu-185" value="&lt;ul style=&quot;padding-left: 10px;&quot;&gt;&lt;li&gt;&lt;b&gt;date&amp;nbsp; &amp;nbsp;&lt;/b&gt;tarihinde&amp;nbsp; &lt;b&gt;Resolved&lt;/b&gt; edildi.&lt;/li&gt;&lt;/ul&gt;&lt;blockquote style=&quot;margin: 0px 0px 0px 40px; border: none; padding: 0px; line-height: 100%;&quot;&gt;Resolved description&amp;nbsp;&lt;span style=&quot;background-color: transparent; color: light-dark(rgb(0, 0, 0), rgb(255, 255, 255));&quot;&gt;Lorem ipsum dolor sit amet, consectetur adipisicing elit, sed do eiusmod t&lt;/span&gt;&lt;/blockquote&gt;" style="text;html=1;align=left;verticalAlign=middle;whiteSpace=wrap;rounded=0;spacingLeft=10;" vertex="1" parent="Jio9_Xvqp7xOdHNEGPPu-153">
          <mxGeometry x="60" y="60" width="410" height="40" as="geometry" />
        </mxCell>
        <mxCell id="Jio9_Xvqp7xOdHNEGPPu-186" value="&lt;ul style=&quot;padding-left: 10px;&quot;&gt;&lt;li&gt;&lt;b&gt;date&amp;nbsp; &amp;nbsp;&lt;/b&gt;tarihinde&amp;nbsp; &lt;b&gt;Assigned&lt;/b&gt; edildi.&lt;/li&gt;&lt;/ul&gt;" style="text;html=1;align=left;verticalAlign=middle;whiteSpace=wrap;rounded=0;spacingLeft=10;" vertex="1" parent="Jio9_Xvqp7xOdHNEGPPu-153">
          <mxGeometry x="65" y="120" width="410" height="40" as="geometry" />
        </mxCell>
        <mxCell id="Jio9_Xvqp7xOdHNEGPPu-200" style="edgeStyle=orthogonalEdgeStyle;rounded=0;orthogonalLoop=1;jettySize=auto;html=1;exitX=1;exitY=0.25;exitDx=0;exitDy=0;" edge="1" parent="Jio9_Xvqp7xOdHNEGPPu-153" source="Jio9_Xvqp7xOdHNEGPPu-196">
          <mxGeometry relative="1" as="geometry">
            <mxPoint x="1090" y="400" as="targetPoint" />
            <Array as="points">
              <mxPoint x="940" y="170" />
              <mxPoint x="940" y="300" />
              <mxPoint x="991" y="300" />
              <mxPoint x="991" y="400" />
            </Array>
          </mxGeometry>
        </mxCell>
        <mxCell id="Jio9_Xvqp7xOdHNEGPPu-196" value="&lt;b&gt;Düzenle&lt;/b&gt;" style="rounded=1;whiteSpace=wrap;html=1;" vertex="1" parent="Jio9_Xvqp7xOdHNEGPPu-153">
          <mxGeometry x="678.44" y="160" width="103.12499999999999" height="40" as="geometry" />
        </mxCell>
        <mxCell id="Jio9_Xvqp7xOdHNEGPPu-197" value="" style="verticalLabelPosition=bottom;shadow=0;dashed=0;align=center;html=1;verticalAlign=top;strokeWidth=1;shape=mxgraph.mockup.markup.line;strokeColor=#999999;" vertex="1" parent="Jio9_Xvqp7xOdHNEGPPu-153">
          <mxGeometry x="28.13000000000011" y="270" width="550" height="20" as="geometry" />
        </mxCell>
        <mxCell id="Jio9_Xvqp7xOdHNEGPPu-199" value="&lt;b&gt;Görevlendirme Açıklaması&lt;/b&gt;&lt;div&gt;&lt;h1 style=&quot;margin-top: 0px;&quot;&gt;&lt;span style=&quot;font-size: 12px; font-weight: 400;&quot;&gt;Lorem ipsum dolor sit amet,&amp;nbsp;&lt;/span&gt;&lt;span style=&quot;background-color: transparent; color: light-dark(rgb(0, 0, 0), rgb(255, 255, 255)); font-size: 12px; font-weight: normal;&quot;&gt;Lorem ipsum dolor sit amet, consectetur adipisicing elit, sed do eiusmod tempor incididunt ut labore et dolore magna aliqua.&amp;nbsp;&lt;/span&gt;&lt;span style=&quot;background-color: transparent; color: light-dark(rgb(0, 0, 0), rgb(255, 255, 255)); font-size: 12px; font-weight: normal;&quot;&gt;Lorem ipsum dolor sit amet, consectetur adipisicing elit, sed do eiusm&lt;/span&gt;&lt;/h1&gt;&lt;/div&gt;" style="text;html=1;align=left;verticalAlign=middle;whiteSpace=wrap;rounded=0;" vertex="1" parent="Jio9_Xvqp7xOdHNEGPPu-153">
          <mxGeometry x="50" y="160" width="510" height="120" as="geometry" />
        </mxCell>
        <mxCell id="Jio9_Xvqp7xOdHNEGPPu-161" value="" style="rounded=1;whiteSpace=wrap;html=1;container=1;portConstraint=none;overflow=hidden;" vertex="1" parent="Jio9_Xvqp7xOdHNEGPPu-146">
          <mxGeometry y="329" width="73.89" height="211" as="geometry" />
        </mxCell>
        <mxCell id="Jio9_Xvqp7xOdHNEGPPu-162" value="&lt;font style=&quot;font-size: 22px;&quot;&gt;&lt;b style=&quot;&quot;&gt;+&lt;/b&gt;&lt;/font&gt;" style="text;html=1;align=center;verticalAlign=middle;whiteSpace=wrap;rounded=1;strokeColor=default;glass=0;" vertex="1" parent="Jio9_Xvqp7xOdHNEGPPu-161">
          <mxGeometry x="5" y="15" width="60" height="30" as="geometry" />
        </mxCell>
        <mxCell id="Jio9_Xvqp7xOdHNEGPPu-163" value="&lt;font style=&quot;font-size: 22px;&quot;&gt;&lt;b style=&quot;&quot;&gt;+&lt;/b&gt;&lt;/font&gt;" style="text;html=1;align=center;verticalAlign=middle;whiteSpace=wrap;rounded=1;strokeColor=default;glass=0;" vertex="1" parent="Jio9_Xvqp7xOdHNEGPPu-161">
          <mxGeometry x="6.950000000000054" y="61" width="60" height="30" as="geometry" />
        </mxCell>
        <mxCell id="Jio9_Xvqp7xOdHNEGPPu-164" value="&lt;font style=&quot;font-size: 22px;&quot;&gt;&lt;b style=&quot;&quot;&gt;+&lt;/b&gt;&lt;/font&gt;" style="text;html=1;align=center;verticalAlign=middle;whiteSpace=wrap;rounded=1;strokeColor=default;glass=0;" vertex="1" parent="Jio9_Xvqp7xOdHNEGPPu-161">
          <mxGeometry x="6.940000000000055" y="106" width="60" height="30" as="geometry" />
        </mxCell>
        <mxCell id="Jio9_Xvqp7xOdHNEGPPu-165" value="&lt;font style=&quot;font-size: 22px;&quot;&gt;&lt;b style=&quot;&quot;&gt;+&lt;/b&gt;&lt;/font&gt;" style="text;html=1;align=center;verticalAlign=middle;whiteSpace=wrap;rounded=1;strokeColor=default;glass=0;" vertex="1" parent="Jio9_Xvqp7xOdHNEGPPu-161">
          <mxGeometry x="6.9500000000000455" y="151" width="60" height="30" as="geometry" />
        </mxCell>
        <mxCell id="Jio9_Xvqp7xOdHNEGPPu-166" value="Case Name" style="rounded=1;whiteSpace=wrap;html=1;" vertex="1" parent="Jio9_Xvqp7xOdHNEGPPu-146">
          <mxGeometry x="120" y="239" width="120" height="30" as="geometry" />
        </mxCell>
        <mxCell id="Jio9_Xvqp7xOdHNEGPPu-167" value="find case description" style="rounded=1;whiteSpace=wrap;html=1;" vertex="1" parent="Jio9_Xvqp7xOdHNEGPPu-146">
          <mxGeometry x="265" y="239" width="120" height="30" as="geometry" />
        </mxCell>
        <mxCell id="Jio9_Xvqp7xOdHNEGPPu-168" value="Status" style="rounded=1;whiteSpace=wrap;html=1;container=1;" vertex="1" parent="Jio9_Xvqp7xOdHNEGPPu-146">
          <mxGeometry x="410" y="239" width="120" height="30" as="geometry" />
        </mxCell>
        <mxCell id="Jio9_Xvqp7xOdHNEGPPu-169" value="&lt;font style=&quot;font-size: 17px;&quot;&gt;+&lt;/font&gt;" style="text;html=1;align=center;verticalAlign=middle;whiteSpace=wrap;rounded=0;" vertex="1" parent="Jio9_Xvqp7xOdHNEGPPu-146">
          <mxGeometry x="410" y="240" width="40" height="30" as="geometry" />
        </mxCell>
        <mxCell id="Jio9_Xvqp7xOdHNEGPPu-170" value="find status description" style="rounded=1;whiteSpace=wrap;html=1;" vertex="1" parent="Jio9_Xvqp7xOdHNEGPPu-146">
          <mxGeometry x="548" y="239" width="120" height="30" as="geometry" />
        </mxCell>
        <mxCell id="Jio9_Xvqp7xOdHNEGPPu-171" value="&lt;font style=&quot;font-size: 17px;&quot;&gt;&lt;b&gt;&amp;nbsp;+&amp;nbsp; &amp;nbsp;&lt;/b&gt;&lt;/font&gt;Asigned User" style="rounded=1;whiteSpace=wrap;html=1;align=left;" vertex="1" parent="Jio9_Xvqp7xOdHNEGPPu-146">
          <mxGeometry x="690" y="239" width="120" height="30" as="geometry" />
        </mxCell>
        <mxCell id="Jio9_Xvqp7xOdHNEGPPu-181" value="Tıklama" style="rounded=0;orthogonalLoop=1;jettySize=auto;html=1;exitX=0.5;exitY=1;exitDx=0;exitDy=0;entryX=0.796;entryY=0;entryDx=0;entryDy=0;entryPerimeter=0;edgeStyle=orthogonalEdgeStyle;" edge="1" parent="1" source="Jio9_Xvqp7xOdHNEGPPu-103" target="Jio9_Xvqp7xOdHNEGPPu-104">
          <mxGeometry relative="1" as="geometry" />
        </mxCell>
        <mxCell id="Jio9_Xvqp7xOdHNEGPPu-187" value="" style="rounded=1;whiteSpace=wrap;html=1;container=1;strokeOpacity=100;fillOpacity=100;" vertex="1" parent="1">
          <mxGeometry x="3920" y="410" width="420" height="340" as="geometry" />
        </mxCell>
        <mxCell id="Jio9_Xvqp7xOdHNEGPPu-188" value="" style="rounded=1;whiteSpace=wrap;html=1;container=1;" vertex="1" parent="Jio9_Xvqp7xOdHNEGPPu-187">
          <mxGeometry x="115" y="88.69565217391303" width="190" height="34" as="geometry" />
        </mxCell>
        <mxCell id="Jio9_Xvqp7xOdHNEGPPu-189" value="&lt;b&gt;&lt;font style=&quot;font-size: 17px;&quot;&gt;+&lt;/font&gt;&lt;/b&gt;" style="text;html=1;align=center;verticalAlign=middle;whiteSpace=wrap;rounded=0;" vertex="1" parent="Jio9_Xvqp7xOdHNEGPPu-188">
          <mxGeometry x="15" y="7.892857142857143" width="55" height="18.214285714285715" as="geometry" />
        </mxCell>
        <mxCell id="Jio9_Xvqp7xOdHNEGPPu-190" value="&lt;b&gt;&lt;font style=&quot;font-size: 15px;&quot;&gt;CaseStatus&lt;/font&gt;&lt;/b&gt;" style="text;html=1;align=center;verticalAlign=middle;whiteSpace=wrap;rounded=0;" vertex="1" parent="Jio9_Xvqp7xOdHNEGPPu-188">
          <mxGeometry x="85" y="7.892857142857143" width="60" height="18.214285714285715" as="geometry" />
        </mxCell>
        <mxCell id="Jio9_Xvqp7xOdHNEGPPu-191" value="&lt;h1&gt;Olay durumu&lt;/h1&gt;" style="text;html=1;align=center;verticalAlign=middle;whiteSpace=wrap;rounded=0;" vertex="1" parent="Jio9_Xvqp7xOdHNEGPPu-187">
          <mxGeometry x="80" y="23.65217391304348" width="280" height="44.347826086956516" as="geometry" />
        </mxCell>
        <mxCell id="Jio9_Xvqp7xOdHNEGPPu-192" value="&lt;font style=&quot;font-size: 15px;&quot;&gt;İptal&lt;/font&gt;" style="rounded=1;whiteSpace=wrap;html=1;" vertex="1" parent="Jio9_Xvqp7xOdHNEGPPu-187">
          <mxGeometry x="70" y="280.5" width="120" height="34" as="geometry" />
        </mxCell>
        <mxCell id="Jio9_Xvqp7xOdHNEGPPu-193" value="&lt;span style=&quot;font-size: 15px;&quot;&gt;Kaydet&lt;/span&gt;" style="rounded=1;whiteSpace=wrap;html=1;" vertex="1" parent="Jio9_Xvqp7xOdHNEGPPu-187">
          <mxGeometry x="237" y="280.5" width="120" height="34" as="geometry" />
        </mxCell>
        <mxCell id="Jio9_Xvqp7xOdHNEGPPu-194" value="Resolved / Not Resolved ise description&lt;div style=&quot;&quot;&gt;eklenecek&lt;/div&gt;" style="rounded=1;whiteSpace=wrap;html=1;align=left;spacingLeft=21;" vertex="1" parent="Jio9_Xvqp7xOdHNEGPPu-187">
          <mxGeometry x="77" y="145" width="280" height="59.5" as="geometry" />
        </mxCell>
        <mxCell id="Jio9_Xvqp7xOdHNEGPPu-195" value="Tıklandığında" style="edgeStyle=orthogonalEdgeStyle;rounded=0;orthogonalLoop=1;jettySize=auto;html=1;exitX=1;exitY=0.25;exitDx=0;exitDy=0;" edge="1" parent="1" source="Jio9_Xvqp7xOdHNEGPPu-158" target="Jio9_Xvqp7xOdHNEGPPu-187">
          <mxGeometry relative="1" as="geometry" />
        </mxCell>
        <mxCell id="Jio9_Xvqp7xOdHNEGPPu-172" value="" style="rounded=1;whiteSpace=wrap;html=1;container=1;" vertex="1" parent="1">
          <mxGeometry x="2830" y="1010" width="840" height="220" as="geometry">
            <mxRectangle x="50" y="310" width="50" height="40" as="alternateBounds" />
          </mxGeometry>
        </mxCell>
        <mxCell id="Jio9_Xvqp7xOdHNEGPPu-173" value="&lt;h1 style=&quot;margin-top: 0px;&quot;&gt;&lt;span style=&quot;font-size: 12px; font-weight: 400;&quot;&gt;Lorem ipsum dolor sit amet,&amp;nbsp;&lt;/span&gt;&lt;span style=&quot;background-color: transparent; color: light-dark(rgb(0, 0, 0), rgb(255, 255, 255)); font-size: 12px; font-weight: normal;&quot;&gt;Lorem ipsum dolor sit amet, consectetur adipisicing elit, sed do eiusmod tempor incididunt ut labore et dolore magna aliqua.&amp;nbsp;&lt;/span&gt;&lt;span style=&quot;background-color: transparent; color: light-dark(rgb(0, 0, 0), rgb(255, 255, 255)); font-size: 12px; font-weight: normal;&quot;&gt;Lorem ipsum dolor sit amet, consectetur adipisicing elit, sed do eiusmod tempor incididunt ut labore et dolore magna aliqua.&lt;/span&gt;&lt;span style=&quot;background-color: transparent; color: light-dark(rgb(0, 0, 0), rgb(255, 255, 255)); font-size: 12px; font-weight: 400;&quot;&gt;Lorem ipsum dolor sit amet,&amp;nbsp;&lt;/span&gt;&lt;span style=&quot;background-color: transparent; color: light-dark(rgb(0, 0, 0), rgb(255, 255, 255)); font-size: 12px; font-weight: normal;&quot;&gt;Lorem ipsum dolor sit amet, consectetur adipisicing elit, sed do eiusmod tempor incididunt ut labore et dolore magna aliqua.&amp;nbsp;&lt;/span&gt;&lt;span style=&quot;background-color: transparent; color: light-dark(rgb(0, 0, 0), rgb(255, 255, 255)); font-size: 12px; font-weight: normal;&quot;&gt;Lorem ipsum dolor sit amet, consectetur adipisicing elit, sed do eiusmod tempor incididunt ut labore et dolore magna aliqua.&lt;/span&gt;&lt;/h1&gt;" style="text;html=1;whiteSpace=wrap;overflow=hidden;rounded=0;" vertex="1" parent="Jio9_Xvqp7xOdHNEGPPu-172">
          <mxGeometry x="28.13" y="70" width="590.63" height="130" as="geometry" />
        </mxCell>
        <mxCell id="Jio9_Xvqp7xOdHNEGPPu-174" value="&lt;h2&gt;Case Name&lt;/h2&gt;" style="text;html=1;align=center;verticalAlign=middle;whiteSpace=wrap;rounded=0;" vertex="1" parent="Jio9_Xvqp7xOdHNEGPPu-172">
          <mxGeometry x="18.75" y="20" width="112.5" height="30" as="geometry" />
        </mxCell>
        <mxCell id="Jio9_Xvqp7xOdHNEGPPu-175" value="&lt;i&gt;&lt;font style=&quot;color: rgb(51, 51, 51);&quot;&gt;start time - end time&lt;/font&gt;&lt;/i&gt;" style="text;html=1;align=left;verticalAlign=middle;whiteSpace=wrap;rounded=0;" vertex="1" parent="Jio9_Xvqp7xOdHNEGPPu-172">
          <mxGeometry x="140.62" y="25" width="129.38" height="25" as="geometry" />
        </mxCell>
        <mxCell id="Jio9_Xvqp7xOdHNEGPPu-176" value="Open by &lt;b&gt;Opened User&lt;/b&gt;" style="text;html=1;align=left;verticalAlign=middle;whiteSpace=wrap;rounded=0;" vertex="1" parent="Jio9_Xvqp7xOdHNEGPPu-172">
          <mxGeometry x="640" y="70" width="180" height="30" as="geometry" />
        </mxCell>
        <mxCell id="Jio9_Xvqp7xOdHNEGPPu-177" value="CaseStatus" style="rounded=1;whiteSpace=wrap;html=1;" vertex="1" parent="Jio9_Xvqp7xOdHNEGPPu-172">
          <mxGeometry x="679.6875" y="15" width="103.12499999999999" height="40" as="geometry" />
        </mxCell>
        <mxCell id="Jio9_Xvqp7xOdHNEGPPu-178" value="" style="line;strokeWidth=2;html=1;strokeColor=#B3B3B3;" vertex="1" parent="Jio9_Xvqp7xOdHNEGPPu-172">
          <mxGeometry x="28.125" y="50" width="600" height="10" as="geometry" />
        </mxCell>
        <mxCell id="Jio9_Xvqp7xOdHNEGPPu-179" value="Assigned to&amp;nbsp;" style="text;html=1;align=left;verticalAlign=middle;whiteSpace=wrap;rounded=0;" vertex="1" parent="Jio9_Xvqp7xOdHNEGPPu-172">
          <mxGeometry x="640" y="106" width="180" height="30" as="geometry" />
        </mxCell>
        <mxCell id="Jio9_Xvqp7xOdHNEGPPu-180" value="&lt;b&gt;Assigned&lt;/b&gt;" style="rounded=1;whiteSpace=wrap;html=1;" vertex="1" parent="Jio9_Xvqp7xOdHNEGPPu-172">
          <mxGeometry x="679.69" y="150" width="103.12499999999999" height="40" as="geometry" />
        </mxCell>
        <mxCell id="Jio9_Xvqp7xOdHNEGPPu-201" value="Şuan yapmıyacağım;&amp;nbsp;&lt;span style=&quot;background-color: transparent; color: light-dark(rgb(0, 0, 0), rgb(255, 255, 255));&quot;&gt;ama olması durumunda&amp;nbsp;&lt;/span&gt;&lt;div&gt;&lt;ul&gt;&lt;li&gt;case naemi,&lt;/li&gt;&lt;li&gt;&amp;nbsp;assigned userı,&lt;/li&gt;&lt;li&gt;CaseDescription&lt;/li&gt;&lt;li&gt;Assigned description&lt;/li&gt;&lt;/ul&gt;bilgilerini güncellemesi sağlanacak...&lt;/div&gt;" style="text;html=1;align=left;verticalAlign=middle;resizable=0;points=[];autosize=1;strokeColor=none;fillColor=none;" vertex="1" parent="1">
          <mxGeometry x="3940" y="815" width="270" height="120" as="geometry" />
        </mxCell>
        <mxCell id="Jio9_Xvqp7xOdHNEGPPu-203" value="İlgili alanda hangisi seçilir&amp;nbsp;&lt;div&gt;veya işleme başlarsa&lt;div&gt;diğerleri temizlenecek&lt;/div&gt;&lt;/div&gt;" style="text;html=1;align=center;verticalAlign=middle;resizable=0;points=[];autosize=1;strokeColor=none;fillColor=none;" vertex="1" parent="1">
          <mxGeometry x="1120" y="263" width="160" height="60" as="geometry" />
        </mxCell>
        <mxCell id="Jio9_Xvqp7xOdHNEGPPu-204" value="" style="rounded=1;whiteSpace=wrap;html=1;container=1;strokeOpacity=100;fillOpacity=100;" vertex="1" parent="1">
          <mxGeometry x="790" y="1850" width="640" height="500" as="geometry" />
        </mxCell>
        <mxCell id="Jio9_Xvqp7xOdHNEGPPu-205" value="Name" style="rounded=1;whiteSpace=wrap;html=1;container=1;resizable=0;" vertex="1" parent="Jio9_Xvqp7xOdHNEGPPu-204">
          <mxGeometry x="83.67684210526318" y="90" width="480" height="40" as="geometry" />
        </mxCell>
        <mxCell id="Jio9_Xvqp7xOdHNEGPPu-208" value="&lt;h1&gt;&lt;b&gt;Case Kayıt&lt;/b&gt;&lt;/h1&gt;" style="text;html=1;align=center;verticalAlign=middle;whiteSpace=wrap;rounded=0;resizable=0;" vertex="1" parent="Jio9_Xvqp7xOdHNEGPPu-204">
          <mxGeometry x="57.012130325814525" y="10.002608695652178" width="506.66666666666663" height="65.21739130434783" as="geometry" />
        </mxCell>
        <mxCell id="Jio9_Xvqp7xOdHNEGPPu-209" value="&lt;font style=&quot;font-size: 15px;&quot;&gt;İptal&lt;/font&gt;" style="rounded=1;whiteSpace=wrap;html=1;resizable=0;" vertex="1" parent="Jio9_Xvqp7xOdHNEGPPu-204">
          <mxGeometry x="69.99298245614037" y="420" width="217.14285714285714" height="40" as="geometry" />
        </mxCell>
        <mxCell id="Jio9_Xvqp7xOdHNEGPPu-210" value="&lt;span style=&quot;font-size: 15px;&quot;&gt;Kaydet&lt;/span&gt;" style="rounded=1;whiteSpace=wrap;html=1;resizable=0;" vertex="1" parent="Jio9_Xvqp7xOdHNEGPPu-204">
          <mxGeometry x="330.0028571428571" y="420" width="217.14285714285714" height="40" as="geometry" />
        </mxCell>
        <mxCell id="Jio9_Xvqp7xOdHNEGPPu-211" value="Case description" style="rounded=1;whiteSpace=wrap;html=1;resizable=0;" vertex="1" parent="Jio9_Xvqp7xOdHNEGPPu-204">
          <mxGeometry x="57.015071399428834" y="210" width="506.66666666666663" height="175" as="geometry" />
        </mxCell>
        <mxCell id="Jio9_Xvqp7xOdHNEGPPu-212" value="Start Date" style="rounded=1;whiteSpace=wrap;html=1;container=1;resizable=0;" vertex="1" parent="Jio9_Xvqp7xOdHNEGPPu-204">
          <mxGeometry x="69.99684210526318" y="150" width="200" height="40" as="geometry" />
        </mxCell>
        <mxCell id="Jio9_Xvqp7xOdHNEGPPu-213" value="End Date" style="rounded=1;whiteSpace=wrap;html=1;container=1;resizable=0;" vertex="1" parent="Jio9_Xvqp7xOdHNEGPPu-204">
          <mxGeometry x="353.6842105263158" y="150" width="210" height="40" as="geometry" />
        </mxCell>
        <mxCell id="Jio9_Xvqp7xOdHNEGPPu-214" value="Ekleme" style="edgeStyle=orthogonalEdgeStyle;rounded=0;orthogonalLoop=1;jettySize=auto;html=1;exitX=0;exitY=0.5;exitDx=0;exitDy=0;entryX=0.672;entryY=-0.002;entryDx=0;entryDy=0;entryPerimeter=0;" edge="1" parent="1" source="Jio9_Xvqp7xOdHNEGPPu-120" target="Jio9_Xvqp7xOdHNEGPPu-204">
          <mxGeometry relative="1" as="geometry" />
        </mxCell>
      </root>
    </mxGraphModel>
  </diagram>
</mxfile>
